<mxfile host="drawio-plugin" modified="2022-11-21T19:23:23.888Z" agent="5.0 (X11; Linux x86_64) AppleWebKit/537.36 (KHTML, like Gecko) Chrome/98.0.4758.102 Safari/537.36" etag="JBnS3IDhsdPUzthIiKjR" version="20.5.3" type="embed"><diagram id="23iRSUPoRavnBvh4doch" name="Page-1"><mxGraphModel dx="1660" dy="785" grid="1" gridSize="10" guides="1" tooltips="1" connect="1" arrows="1" fold="1" page="1" pageScale="1" pageWidth="1169" pageHeight="827" math="0" shadow="0"><root><mxCell id="0"/><mxCell id="1" parent="0"/><mxCell id="SGMvn93EfNvMgkkBNmYU-24" value="Student Module" style="shape=umlFrame;whiteSpace=wrap;html=1;width=112;height=20;boundedLbl=1;verticalAlign=middle;align=left;spacingLeft=5;fontSize=12;movable=1;resizable=1;rotatable=1;deletable=1;editable=1;connectable=1;" parent="1" vertex="1"><mxGeometry x="122" y="120" width="312" height="173" as="geometry"/></mxCell><mxCell id="SGMvn93EfNvMgkkBNmYU-25" value="Admin Module" style="shape=umlFrame;whiteSpace=wrap;html=1;width=112;height=20;boundedLbl=1;verticalAlign=middle;align=left;spacingLeft=5;fontSize=12;movable=1;resizable=1;rotatable=1;deletable=1;editable=1;connectable=1;" parent="1" vertex="1"><mxGeometry x="122" y="310" width="228" height="166.5" as="geometry"/></mxCell><mxCell id="2" value="&lt;font style=&quot;font-size: 19px;&quot;&gt;Use Case Diagram&lt;/font&gt;" style="text;html=1;strokeColor=none;fillColor=none;align=center;verticalAlign=middle;whiteSpace=wrap;rounded=0;movable=1;resizable=1;rotatable=1;deletable=1;editable=1;connectable=1;" parent="1" vertex="1"><mxGeometry x="30" y="20" width="180" height="30" as="geometry"/></mxCell><mxCell id="SGMvn93EfNvMgkkBNmYU-13" style="edgeStyle=none;rounded=0;orthogonalLoop=1;jettySize=auto;html=1;movable=1;resizable=1;rotatable=1;deletable=1;editable=1;connectable=1;" parent="1" source="VScSaB4HSaXqvbwl9zk3-2" target="SGMvn93EfNvMgkkBNmYU-5" edge="1"><mxGeometry relative="1" as="geometry"/></mxCell><mxCell id="SGMvn93EfNvMgkkBNmYU-16" style="edgeStyle=none;rounded=0;orthogonalLoop=1;jettySize=auto;html=1;movable=1;resizable=1;rotatable=1;deletable=1;editable=1;connectable=1;" parent="1" source="VScSaB4HSaXqvbwl9zk3-2" target="SGMvn93EfNvMgkkBNmYU-3" edge="1"><mxGeometry relative="1" as="geometry"/></mxCell><mxCell id="SGMvn93EfNvMgkkBNmYU-17" style="edgeStyle=none;rounded=0;orthogonalLoop=1;jettySize=auto;html=1;movable=1;resizable=1;rotatable=1;deletable=1;editable=1;connectable=1;" parent="1" source="VScSaB4HSaXqvbwl9zk3-2" target="SGMvn93EfNvMgkkBNmYU-4" edge="1"><mxGeometry relative="1" as="geometry"/></mxCell><mxCell id="SGMvn93EfNvMgkkBNmYU-23" style="edgeStyle=none;rounded=0;orthogonalLoop=1;jettySize=auto;html=1;" parent="1" source="VScSaB4HSaXqvbwl9zk3-2" target="SGMvn93EfNvMgkkBNmYU-21" edge="1"><mxGeometry relative="1" as="geometry"/></mxCell><mxCell id="VScSaB4HSaXqvbwl9zk3-2" value="&lt;font style=&quot;font-size: 12px;&quot;&gt;Student&lt;/font&gt;" style="shape=umlActor;verticalLabelPosition=bottom;verticalAlign=top;html=1;outlineConnect=0;fontSize=19;movable=1;resizable=1;rotatable=1;deletable=1;editable=1;connectable=1;" parent="1" vertex="1"><mxGeometry x="40" y="173" width="30" height="60" as="geometry"/></mxCell><mxCell id="SGMvn93EfNvMgkkBNmYU-18" style="edgeStyle=none;rounded=0;orthogonalLoop=1;jettySize=auto;html=1;movable=1;resizable=1;rotatable=1;deletable=1;editable=1;connectable=1;" parent="1" source="VScSaB4HSaXqvbwl9zk3-3" target="SGMvn93EfNvMgkkBNmYU-7" edge="1"><mxGeometry relative="1" as="geometry"/></mxCell><mxCell id="SGMvn93EfNvMgkkBNmYU-19" style="edgeStyle=none;rounded=0;orthogonalLoop=1;jettySize=auto;html=1;movable=1;resizable=1;rotatable=1;deletable=1;editable=1;connectable=1;" parent="1" source="VScSaB4HSaXqvbwl9zk3-3" target="SGMvn93EfNvMgkkBNmYU-6" edge="1"><mxGeometry relative="1" as="geometry"/></mxCell><mxCell id="SGMvn93EfNvMgkkBNmYU-20" style="edgeStyle=none;rounded=0;orthogonalLoop=1;jettySize=auto;html=1;movable=1;resizable=1;rotatable=1;deletable=1;editable=1;connectable=1;" parent="1" source="VScSaB4HSaXqvbwl9zk3-3" target="SGMvn93EfNvMgkkBNmYU-9" edge="1"><mxGeometry relative="1" as="geometry"/></mxCell><mxCell id="VScSaB4HSaXqvbwl9zk3-3" value="&lt;font style=&quot;font-size: 12px;&quot;&gt;Administrator&lt;/font&gt;" style="shape=umlActor;verticalLabelPosition=bottom;verticalAlign=top;html=1;outlineConnect=0;fontSize=19;movable=1;resizable=1;rotatable=1;deletable=1;editable=1;connectable=1;" parent="1" vertex="1"><mxGeometry x="40" y="354" width="30" height="60" as="geometry"/></mxCell><mxCell id="VScSaB4HSaXqvbwl9zk3-4" value="Driving Appointment&amp;nbsp;System" style="shape=umlFrame;whiteSpace=wrap;html=1;width=202;height=30;boundedLbl=1;verticalAlign=middle;align=left;spacingLeft=5;fontSize=12;movable=1;resizable=1;rotatable=1;deletable=1;editable=1;connectable=1;" parent="1" vertex="1"><mxGeometry x="108" y="80" width="340" height="410" as="geometry"/></mxCell><mxCell id="SGMvn93EfNvMgkkBNmYU-3" value="Take appointment&lt;br&gt;slot" style="ellipse;whiteSpace=wrap;html=1;movable=1;resizable=1;rotatable=1;deletable=1;editable=1;connectable=1;" parent="1" vertex="1"><mxGeometry x="320" y="178" width="100" height="50" as="geometry"/></mxCell><mxCell id="SGMvn93EfNvMgkkBNmYU-4" value="Cancel appointment&lt;br&gt;slot" style="ellipse;whiteSpace=wrap;html=1;movable=1;resizable=1;rotatable=1;deletable=1;editable=1;connectable=1;" parent="1" vertex="1"><mxGeometry x="230" y="213" width="100" height="50" as="geometry"/></mxCell><mxCell id="SGMvn93EfNvMgkkBNmYU-5" value="Start exam in appointment&lt;br&gt;slot" style="ellipse;whiteSpace=wrap;html=1;movable=1;resizable=1;rotatable=1;deletable=1;editable=1;connectable=1;" parent="1" vertex="1"><mxGeometry x="140" y="143" width="100" height="50" as="geometry"/></mxCell><mxCell id="SGMvn93EfNvMgkkBNmYU-6" value="Modify question" style="ellipse;whiteSpace=wrap;html=1;movable=1;resizable=1;rotatable=1;deletable=1;editable=1;connectable=1;" parent="1" vertex="1"><mxGeometry x="240" y="380" width="100" height="50" as="geometry"/></mxCell><mxCell id="SGMvn93EfNvMgkkBNmYU-7" value="Get all questions" style="ellipse;whiteSpace=wrap;html=1;movable=1;resizable=1;rotatable=1;deletable=1;editable=1;connectable=1;" parent="1" vertex="1"><mxGeometry x="140" y="340" width="100" height="50" as="geometry"/></mxCell><mxCell id="SGMvn93EfNvMgkkBNmYU-9" value="Get today's&lt;br&gt;statistics" style="ellipse;whiteSpace=wrap;html=1;movable=1;resizable=1;rotatable=1;deletable=1;editable=1;connectable=1;" parent="1" vertex="1"><mxGeometry x="140" y="414" width="100" height="50" as="geometry"/></mxCell><mxCell id="SGMvn93EfNvMgkkBNmYU-10" value="Answer&lt;br&gt;questions" style="ellipse;whiteSpace=wrap;html=1;movable=1;resizable=1;rotatable=1;deletable=1;editable=1;connectable=1;" parent="1" vertex="1"><mxGeometry x="320" y="123" width="100" height="50" as="geometry"/></mxCell><mxCell id="SGMvn93EfNvMgkkBNmYU-15" value="&amp;lt;&amp;lt;extend&amp;gt;&amp;gt;" style="edgeStyle=none;html=1;startArrow=open;endArrow=none;startSize=12;verticalAlign=bottom;dashed=1;labelBackgroundColor=none;rounded=0;movable=1;resizable=1;rotatable=1;deletable=1;editable=1;connectable=1;" parent="1" source="SGMvn93EfNvMgkkBNmYU-5" target="SGMvn93EfNvMgkkBNmYU-10" edge="1"><mxGeometry width="160" relative="1" as="geometry"><mxPoint x="190" y="283" as="sourcePoint"/><mxPoint x="350" y="283" as="targetPoint"/></mxGeometry></mxCell><mxCell id="SGMvn93EfNvMgkkBNmYU-21" value="Get results" style="ellipse;whiteSpace=wrap;html=1;movable=1;resizable=1;rotatable=1;deletable=1;editable=1;connectable=1;" parent="1" vertex="1"><mxGeometry x="130" y="233" width="100" height="50" as="geometry"/></mxCell><mxCell id="SGMvn93EfNvMgkkBNmYU-22" value="&lt;font style=&quot;font-size: 34px;&quot;&gt;Class Diagram&lt;/font&gt;" style="text;html=1;strokeColor=none;fillColor=none;align=center;verticalAlign=middle;whiteSpace=wrap;rounded=0;movable=1;resizable=1;rotatable=1;deletable=1;editable=1;connectable=1;" parent="1" vertex="1"><mxGeometry x="850" y="233" width="250" height="30" as="geometry"/></mxCell><mxCell id="SGMvn93EfNvMgkkBNmYU-30" value="Base User" style="swimlane;fontStyle=1;align=center;verticalAlign=top;childLayout=stackLayout;horizontal=1;startSize=26;horizontalStack=0;resizeParent=1;resizeParentMax=0;resizeLast=0;collapsible=1;marginBottom=0;" parent="1" vertex="1"><mxGeometry x="1336" y="30" width="160" height="86" as="geometry"/></mxCell><mxCell id="SGMvn93EfNvMgkkBNmYU-31" value="- username: String" style="text;strokeColor=none;fillColor=none;align=left;verticalAlign=top;spacingLeft=4;spacingRight=4;overflow=hidden;rotatable=0;points=[[0,0.5],[1,0.5]];portConstraint=eastwest;" parent="SGMvn93EfNvMgkkBNmYU-30" vertex="1"><mxGeometry y="26" width="160" height="26" as="geometry"/></mxCell><mxCell id="SGMvn93EfNvMgkkBNmYU-34" value="- password: String" style="text;strokeColor=none;fillColor=none;align=left;verticalAlign=top;spacingLeft=4;spacingRight=4;overflow=hidden;rotatable=0;points=[[0,0.5],[1,0.5]];portConstraint=eastwest;" parent="SGMvn93EfNvMgkkBNmYU-30" vertex="1"><mxGeometry y="52" width="160" height="26" as="geometry"/></mxCell><mxCell id="SGMvn93EfNvMgkkBNmYU-32" value="" style="line;strokeWidth=1;fillColor=none;align=left;verticalAlign=middle;spacingTop=-1;spacingLeft=3;spacingRight=3;rotatable=0;labelPosition=right;points=[];portConstraint=eastwest;strokeColor=inherit;" parent="SGMvn93EfNvMgkkBNmYU-30" vertex="1"><mxGeometry y="78" width="160" height="8" as="geometry"/></mxCell><mxCell id="SGMvn93EfNvMgkkBNmYU-46" style="edgeStyle=orthogonalEdgeStyle;rounded=0;orthogonalLoop=1;jettySize=auto;html=1;endArrow=block;endFill=1;" parent="1" source="SGMvn93EfNvMgkkBNmYU-35" target="SGMvn93EfNvMgkkBNmYU-30" edge="1"><mxGeometry relative="1" as="geometry"><Array as="points"><mxPoint x="1315" y="150"/><mxPoint x="1416" y="150"/></Array></mxGeometry></mxCell><mxCell id="SGMvn93EfNvMgkkBNmYU-35" value="Student" style="swimlane;fontStyle=1;align=center;verticalAlign=top;childLayout=stackLayout;horizontal=1;startSize=26;horizontalStack=0;resizeParent=1;resizeParentMax=0;resizeLast=0;collapsible=1;marginBottom=0;" parent="1" vertex="1"><mxGeometry x="1235" y="188" width="160" height="60" as="geometry"/></mxCell><mxCell id="SGMvn93EfNvMgkkBNmYU-76" value="- attempts: Integer = 0" style="text;strokeColor=none;fillColor=none;align=left;verticalAlign=top;spacingLeft=4;spacingRight=4;overflow=hidden;rotatable=0;points=[[0,0.5],[1,0.5]];portConstraint=eastwest;" parent="SGMvn93EfNvMgkkBNmYU-35" vertex="1"><mxGeometry y="26" width="160" height="26" as="geometry"/></mxCell><mxCell id="SGMvn93EfNvMgkkBNmYU-38" value="" style="line;strokeWidth=1;fillColor=none;align=left;verticalAlign=middle;spacingTop=-1;spacingLeft=3;spacingRight=3;rotatable=0;labelPosition=right;points=[];portConstraint=eastwest;strokeColor=inherit;" parent="SGMvn93EfNvMgkkBNmYU-35" vertex="1"><mxGeometry y="52" width="160" height="8" as="geometry"/></mxCell><mxCell id="SGMvn93EfNvMgkkBNmYU-45" style="edgeStyle=orthogonalEdgeStyle;rounded=0;orthogonalLoop=1;jettySize=auto;html=1;endArrow=block;endFill=1;" parent="1" source="SGMvn93EfNvMgkkBNmYU-40" target="SGMvn93EfNvMgkkBNmYU-30" edge="1"><mxGeometry relative="1" as="geometry"><Array as="points"><mxPoint x="1535" y="150"/><mxPoint x="1416" y="150"/></Array></mxGeometry></mxCell><mxCell id="SGMvn93EfNvMgkkBNmYU-40" value="Admin" style="swimlane;fontStyle=1;align=center;verticalAlign=top;childLayout=stackLayout;horizontal=1;startSize=26;horizontalStack=0;resizeParent=1;resizeParentMax=0;resizeLast=0;collapsible=1;marginBottom=0;" parent="1" vertex="1"><mxGeometry x="1455" y="214" width="160" height="34" as="geometry"/></mxCell><mxCell id="SGMvn93EfNvMgkkBNmYU-43" value="" style="line;strokeWidth=1;fillColor=none;align=left;verticalAlign=middle;spacingTop=-1;spacingLeft=3;spacingRight=3;rotatable=0;labelPosition=right;points=[];portConstraint=eastwest;strokeColor=inherit;" parent="SGMvn93EfNvMgkkBNmYU-40" vertex="1"><mxGeometry y="26" width="160" height="8" as="geometry"/></mxCell><mxCell id="SGMvn93EfNvMgkkBNmYU-47" value="Question" style="swimlane;fontStyle=1;align=center;verticalAlign=top;childLayout=stackLayout;horizontal=1;startSize=26;horizontalStack=0;resizeParent=1;resizeParentMax=0;resizeLast=0;collapsible=1;marginBottom=0;" parent="1" vertex="1"><mxGeometry x="1700" y="658" width="290" height="86" as="geometry"/></mxCell><mxCell id="SGMvn93EfNvMgkkBNmYU-50" value="- text: String" style="text;strokeColor=none;fillColor=none;align=left;verticalAlign=top;spacingLeft=4;spacingRight=4;overflow=hidden;rotatable=0;points=[[0,0.5],[1,0.5]];portConstraint=eastwest;" parent="SGMvn93EfNvMgkkBNmYU-47" vertex="1"><mxGeometry y="26" width="290" height="26" as="geometry"/></mxCell><mxCell id="SGMvn93EfNvMgkkBNmYU-48" value="" style="line;strokeWidth=1;fillColor=none;align=left;verticalAlign=middle;spacingTop=-1;spacingLeft=3;spacingRight=3;rotatable=0;labelPosition=right;points=[];portConstraint=eastwest;strokeColor=inherit;" parent="SGMvn93EfNvMgkkBNmYU-47" vertex="1"><mxGeometry y="52" width="290" height="8" as="geometry"/></mxCell><mxCell id="SGMvn93EfNvMgkkBNmYU-49" value="+ getOptionsInRandomOrder(type): List&lt;Option&gt;" style="text;strokeColor=none;fillColor=none;align=left;verticalAlign=top;spacingLeft=4;spacingRight=4;overflow=hidden;rotatable=0;points=[[0,0.5],[1,0.5]];portConstraint=eastwest;" parent="SGMvn93EfNvMgkkBNmYU-47" vertex="1"><mxGeometry y="60" width="290" height="26" as="geometry"/></mxCell><mxCell id="SGMvn93EfNvMgkkBNmYU-51" value="Option" style="swimlane;fontStyle=1;align=center;verticalAlign=top;childLayout=stackLayout;horizontal=1;startSize=26;horizontalStack=0;resizeParent=1;resizeParentMax=0;resizeLast=0;collapsible=1;marginBottom=0;" parent="1" vertex="1"><mxGeometry x="1700" y="448" width="290" height="86" as="geometry"/></mxCell><mxCell id="SGMvn93EfNvMgkkBNmYU-52" value="- text: String" style="text;strokeColor=none;fillColor=none;align=left;verticalAlign=top;spacingLeft=4;spacingRight=4;overflow=hidden;rotatable=0;points=[[0,0.5],[1,0.5]];portConstraint=eastwest;" parent="SGMvn93EfNvMgkkBNmYU-51" vertex="1"><mxGeometry y="26" width="290" height="26" as="geometry"/></mxCell><mxCell id="SGMvn93EfNvMgkkBNmYU-55" value="- correct: Boolean" style="text;strokeColor=none;fillColor=none;align=left;verticalAlign=top;spacingLeft=4;spacingRight=4;overflow=hidden;rotatable=0;points=[[0,0.5],[1,0.5]];portConstraint=eastwest;" parent="SGMvn93EfNvMgkkBNmYU-51" vertex="1"><mxGeometry y="52" width="290" height="26" as="geometry"/></mxCell><mxCell id="SGMvn93EfNvMgkkBNmYU-53" value="" style="line;strokeWidth=1;fillColor=none;align=left;verticalAlign=middle;spacingTop=-1;spacingLeft=3;spacingRight=3;rotatable=0;labelPosition=right;points=[];portConstraint=eastwest;strokeColor=inherit;" parent="SGMvn93EfNvMgkkBNmYU-51" vertex="1"><mxGeometry y="78" width="290" height="8" as="geometry"/></mxCell><mxCell id="SGMvn93EfNvMgkkBNmYU-56" value="Appointment" style="swimlane;fontStyle=1;align=center;verticalAlign=top;childLayout=stackLayout;horizontal=1;startSize=26;horizontalStack=0;resizeParent=1;resizeParentMax=0;resizeLast=0;collapsible=1;marginBottom=0;" parent="1" vertex="1"><mxGeometry x="1170" y="342" width="290" height="164" as="geometry"/></mxCell><mxCell id="SGMvn93EfNvMgkkBNmYU-60" value="- date: LocalDateTime" style="text;strokeColor=none;fillColor=none;align=left;verticalAlign=top;spacingLeft=4;spacingRight=4;overflow=hidden;rotatable=0;points=[[0,0.5],[1,0.5]];portConstraint=eastwest;" parent="SGMvn93EfNvMgkkBNmYU-56" vertex="1"><mxGeometry y="26" width="290" height="26" as="geometry"/></mxCell><mxCell id="SGMvn93EfNvMgkkBNmYU-61" value="- available: Boolean" style="text;strokeColor=none;fillColor=none;align=left;verticalAlign=top;spacingLeft=4;spacingRight=4;overflow=hidden;rotatable=0;points=[[0,0.5],[1,0.5]];portConstraint=eastwest;" parent="SGMvn93EfNvMgkkBNmYU-56" vertex="1"><mxGeometry y="52" width="290" height="26" as="geometry"/></mxCell><mxCell id="DyhR6PBjAMwKItRnX7ym-2" value="- studentAbsent: Boolean" style="text;strokeColor=none;fillColor=none;align=left;verticalAlign=top;spacingLeft=4;spacingRight=4;overflow=hidden;rotatable=0;points=[[0,0.5],[1,0.5]];portConstraint=eastwest;" parent="SGMvn93EfNvMgkkBNmYU-56" vertex="1"><mxGeometry y="78" width="290" height="26" as="geometry"/></mxCell><mxCell id="SGMvn93EfNvMgkkBNmYU-57" value="- secret: UUID = null" style="text;strokeColor=none;fillColor=none;align=left;verticalAlign=top;spacingLeft=4;spacingRight=4;overflow=hidden;rotatable=0;points=[[0,0.5],[1,0.5]];portConstraint=eastwest;" parent="SGMvn93EfNvMgkkBNmYU-56" vertex="1"><mxGeometry y="104" width="290" height="26" as="geometry"/></mxCell><mxCell id="SGMvn93EfNvMgkkBNmYU-58" value="" style="line;strokeWidth=1;fillColor=none;align=left;verticalAlign=middle;spacingTop=-1;spacingLeft=3;spacingRight=3;rotatable=0;labelPosition=right;points=[];portConstraint=eastwest;strokeColor=inherit;" parent="SGMvn93EfNvMgkkBNmYU-56" vertex="1"><mxGeometry y="130" width="290" height="8" as="geometry"/></mxCell><mxCell id="DyhR6PBjAMwKItRnX7ym-3" value="- wasStudentAbsent(): Boolean" style="text;strokeColor=none;fillColor=none;align=left;verticalAlign=top;spacingLeft=4;spacingRight=4;overflow=hidden;rotatable=0;points=[[0,0.5],[1,0.5]];portConstraint=eastwest;" parent="SGMvn93EfNvMgkkBNmYU-56" vertex="1"><mxGeometry y="138" width="290" height="26" as="geometry"/></mxCell><mxCell id="SGMvn93EfNvMgkkBNmYU-64" value="" style="endArrow=none;startArrow=diamondThin;endFill=0;startFill=0;html=1;verticalAlign=bottom;labelBackgroundColor=none;strokeWidth=1;startSize=8;endSize=8;rounded=0;" parent="1" source="SGMvn93EfNvMgkkBNmYU-35" target="SGMvn93EfNvMgkkBNmYU-56" edge="1"><mxGeometry width="160" relative="1" as="geometry"><mxPoint x="1305" y="268" as="sourcePoint"/><mxPoint x="1465" y="268" as="targetPoint"/></mxGeometry></mxCell><mxCell id="SGMvn93EfNvMgkkBNmYU-65" value="has reserved" style="edgeLabel;html=1;align=center;verticalAlign=middle;resizable=0;points=[];" parent="SGMvn93EfNvMgkkBNmYU-64" vertex="1" connectable="0"><mxGeometry x="0.3471" y="3" relative="1" as="geometry"><mxPoint x="-3" y="-19" as="offset"/></mxGeometry></mxCell><mxCell id="SGMvn93EfNvMgkkBNmYU-80" value="0..*" style="edgeLabel;html=1;align=center;verticalAlign=middle;resizable=0;points=[];" parent="SGMvn93EfNvMgkkBNmYU-64" vertex="1" connectable="0"><mxGeometry x="0.3627" y="-1" relative="1" as="geometry"><mxPoint x="11" y="7" as="offset"/></mxGeometry></mxCell><mxCell id="SGMvn93EfNvMgkkBNmYU-66" value="" style="endArrow=none;startArrow=diamondThin;endFill=0;startFill=1;html=1;verticalAlign=bottom;labelBackgroundColor=none;strokeWidth=1;startSize=8;endSize=8;rounded=0;" parent="1" source="SGMvn93EfNvMgkkBNmYU-47" target="SGMvn93EfNvMgkkBNmYU-51" edge="1"><mxGeometry width="160" relative="1" as="geometry"><mxPoint x="1455" y="565" as="sourcePoint"/><mxPoint x="1615" y="565" as="targetPoint"/></mxGeometry></mxCell><mxCell id="SGMvn93EfNvMgkkBNmYU-69" value="2..*" style="edgeLabel;html=1;align=center;verticalAlign=middle;resizable=0;points=[];" parent="SGMvn93EfNvMgkkBNmYU-66" vertex="1" connectable="0"><mxGeometry x="-0.3718" y="4" relative="1" as="geometry"><mxPoint x="11" y="30" as="offset"/></mxGeometry></mxCell><mxCell id="SGMvn93EfNvMgkkBNmYU-70" value="Exam Attempt" style="swimlane;fontStyle=1;align=center;verticalAlign=top;childLayout=stackLayout;horizontal=1;startSize=26;horizontalStack=0;resizeParent=1;resizeParentMax=0;resizeLast=0;collapsible=1;marginBottom=0;" parent="1" vertex="1"><mxGeometry x="1355" y="728" width="290" height="138" as="geometry"/></mxCell><mxCell id="SGMvn93EfNvMgkkBNmYU-73" value="- approved: Boolean" style="text;strokeColor=none;fillColor=none;align=left;verticalAlign=top;spacingLeft=4;spacingRight=4;overflow=hidden;rotatable=0;points=[[0,0.5],[1,0.5]];portConstraint=eastwest;" parent="SGMvn93EfNvMgkkBNmYU-70" vertex="1"><mxGeometry y="26" width="290" height="26" as="geometry"/></mxCell><mxCell id="SGMvn93EfNvMgkkBNmYU-74" value="" style="line;strokeWidth=1;fillColor=none;align=left;verticalAlign=middle;spacingTop=-1;spacingLeft=3;spacingRight=3;rotatable=0;labelPosition=right;points=[];portConstraint=eastwest;strokeColor=inherit;" parent="SGMvn93EfNvMgkkBNmYU-70" vertex="1"><mxGeometry y="52" width="290" height="8" as="geometry"/></mxCell><mxCell id="SGMvn93EfNvMgkkBNmYU-75" value="+ isApproved(): Boolean" style="text;strokeColor=none;fillColor=none;align=left;verticalAlign=top;spacingLeft=4;spacingRight=4;overflow=hidden;rotatable=0;points=[[0,0.5],[1,0.5]];portConstraint=eastwest;" parent="SGMvn93EfNvMgkkBNmYU-70" vertex="1"><mxGeometry y="60" width="290" height="26" as="geometry"/></mxCell><mxCell id="SGMvn93EfNvMgkkBNmYU-102" value="+ addSelectedOption(Option):" style="text;strokeColor=none;fillColor=none;align=left;verticalAlign=top;spacingLeft=4;spacingRight=4;overflow=hidden;rotatable=0;points=[[0,0.5],[1,0.5]];portConstraint=eastwest;" parent="SGMvn93EfNvMgkkBNmYU-70" vertex="1"><mxGeometry y="86" width="290" height="26" as="geometry"/></mxCell><mxCell id="SGMvn93EfNvMgkkBNmYU-103" value="+ getStudent(): Student" style="text;strokeColor=none;fillColor=none;align=left;verticalAlign=top;spacingLeft=4;spacingRight=4;overflow=hidden;rotatable=0;points=[[0,0.5],[1,0.5]];portConstraint=eastwest;" parent="SGMvn93EfNvMgkkBNmYU-70" vertex="1"><mxGeometry y="112" width="290" height="26" as="geometry"/></mxCell><mxCell id="SGMvn93EfNvMgkkBNmYU-94" style="edgeStyle=orthogonalEdgeStyle;rounded=0;orthogonalLoop=1;jettySize=auto;html=1;endArrow=block;endFill=1;" parent="1" source="SGMvn93EfNvMgkkBNmYU-81" target="SGMvn93EfNvMgkkBNmYU-56" edge="1"><mxGeometry relative="1" as="geometry"><mxPoint x="1170" y="587.9999999999998" as="sourcePoint"/></mxGeometry></mxCell><mxCell id="SGMvn93EfNvMgkkBNmYU-81" value="Vision Appointment" style="swimlane;fontStyle=1;align=center;verticalAlign=top;childLayout=stackLayout;horizontal=1;startSize=26;horizontalStack=0;resizeParent=1;resizeParentMax=0;resizeLast=0;collapsible=1;marginBottom=0;" parent="1" vertex="1"><mxGeometry x="1005" y="588" width="290" height="86" as="geometry"/></mxCell><mxCell id="SGMvn93EfNvMgkkBNmYU-84" value="- approved: Boolean" style="text;strokeColor=none;fillColor=none;align=left;verticalAlign=top;spacingLeft=4;spacingRight=4;overflow=hidden;rotatable=0;points=[[0,0.5],[1,0.5]];portConstraint=eastwest;" parent="SGMvn93EfNvMgkkBNmYU-81" vertex="1"><mxGeometry y="26" width="290" height="26" as="geometry"/></mxCell><mxCell id="SGMvn93EfNvMgkkBNmYU-87" value="- doctorName: String" style="text;strokeColor=none;fillColor=none;align=left;verticalAlign=top;spacingLeft=4;spacingRight=4;overflow=hidden;rotatable=0;points=[[0,0.5],[1,0.5]];portConstraint=eastwest;" parent="SGMvn93EfNvMgkkBNmYU-81" vertex="1"><mxGeometry y="52" width="290" height="26" as="geometry"/></mxCell><mxCell id="SGMvn93EfNvMgkkBNmYU-85" value="" style="line;strokeWidth=1;fillColor=none;align=left;verticalAlign=middle;spacingTop=-1;spacingLeft=3;spacingRight=3;rotatable=0;labelPosition=right;points=[];portConstraint=eastwest;strokeColor=inherit;" parent="SGMvn93EfNvMgkkBNmYU-81" vertex="1"><mxGeometry y="78" width="290" height="8" as="geometry"/></mxCell><mxCell id="SGMvn93EfNvMgkkBNmYU-93" style="edgeStyle=orthogonalEdgeStyle;rounded=0;orthogonalLoop=1;jettySize=auto;html=1;endArrow=block;endFill=1;" parent="1" source="SGMvn93EfNvMgkkBNmYU-89" target="SGMvn93EfNvMgkkBNmYU-56" edge="1"><mxGeometry relative="1" as="geometry"/></mxCell><mxCell id="SGMvn93EfNvMgkkBNmYU-89" value="Driving Test Appointment" style="swimlane;fontStyle=1;align=center;verticalAlign=top;childLayout=stackLayout;horizontal=1;startSize=26;horizontalStack=0;resizeParent=1;resizeParentMax=0;resizeLast=0;collapsible=1;marginBottom=0;" parent="1" vertex="1"><mxGeometry x="1355" y="588" width="290" height="34" as="geometry"/></mxCell><mxCell id="SGMvn93EfNvMgkkBNmYU-92" value="" style="line;strokeWidth=1;fillColor=none;align=left;verticalAlign=middle;spacingTop=-1;spacingLeft=3;spacingRight=3;rotatable=0;labelPosition=right;points=[];portConstraint=eastwest;strokeColor=inherit;" parent="SGMvn93EfNvMgkkBNmYU-89" vertex="1"><mxGeometry y="26" width="290" height="8" as="geometry"/></mxCell><mxCell id="SGMvn93EfNvMgkkBNmYU-96" value="" style="endArrow=none;startArrow=diamondThin;endFill=0;startFill=1;html=1;verticalAlign=bottom;labelBackgroundColor=none;strokeWidth=1;startSize=8;endSize=8;rounded=0;" parent="1" source="SGMvn93EfNvMgkkBNmYU-89" target="SGMvn93EfNvMgkkBNmYU-70" edge="1"><mxGeometry width="160" relative="1" as="geometry"><mxPoint x="1595" y="428" as="sourcePoint"/><mxPoint x="1755" y="428" as="targetPoint"/></mxGeometry></mxCell><mxCell id="SGMvn93EfNvMgkkBNmYU-97" value="0..*" style="edgeLabel;html=1;align=center;verticalAlign=middle;resizable=0;points=[];" parent="SGMvn93EfNvMgkkBNmYU-96" vertex="1" connectable="0"><mxGeometry x="-0.2364" relative="1" as="geometry"><mxPoint x="31" y="-13" as="offset"/></mxGeometry></mxCell><mxCell id="SGMvn93EfNvMgkkBNmYU-98" value="" style="endArrow=none;startArrow=diamondThin;endFill=0;startFill=0;html=1;verticalAlign=bottom;labelBackgroundColor=none;strokeWidth=1;startSize=8;endSize=8;rounded=0;" parent="1" source="SGMvn93EfNvMgkkBNmYU-51" target="SGMvn93EfNvMgkkBNmYU-70" edge="1"><mxGeometry width="160" relative="1" as="geometry"><mxPoint x="1895" y="418" as="sourcePoint"/><mxPoint x="2055" y="418" as="targetPoint"/></mxGeometry></mxCell><mxCell id="SGMvn93EfNvMgkkBNmYU-99" value="selected" style="edgeLabel;html=1;align=center;verticalAlign=middle;resizable=0;points=[];" parent="SGMvn93EfNvMgkkBNmYU-98" vertex="1" connectable="0"><mxGeometry x="0.3484" y="2" relative="1" as="geometry"><mxPoint x="3" y="-19" as="offset"/></mxGeometry></mxCell><mxCell id="SGMvn93EfNvMgkkBNmYU-100" value="1..10" style="edgeLabel;html=1;align=center;verticalAlign=middle;resizable=0;points=[];" parent="SGMvn93EfNvMgkkBNmYU-98" vertex="1" connectable="0"><mxGeometry x="0.3307" y="2" relative="1" as="geometry"><mxPoint x="13" y="12" as="offset"/></mxGeometry></mxCell><mxCell id="DyhR6PBjAMwKItRnX7ym-7" value="Appointment Service" style="swimlane;fontStyle=1;align=center;verticalAlign=top;childLayout=stackLayout;horizontal=1;startSize=26;horizontalStack=0;resizeParent=1;resizeParentMax=0;resizeLast=0;collapsible=1;marginBottom=0;" parent="1" vertex="1"><mxGeometry x="560" y="368" width="320" height="112" as="geometry"/></mxCell><mxCell id="DyhR6PBjAMwKItRnX7ym-8" value="- repository: AppointmentRepository" style="text;strokeColor=none;fillColor=none;align=left;verticalAlign=top;spacingLeft=4;spacingRight=4;overflow=hidden;rotatable=0;points=[[0,0.5],[1,0.5]];portConstraint=eastwest;" parent="DyhR6PBjAMwKItRnX7ym-7" vertex="1"><mxGeometry y="26" width="320" height="26" as="geometry"/></mxCell><mxCell id="DyhR6PBjAMwKItRnX7ym-12" value="" style="line;strokeWidth=1;fillColor=none;align=left;verticalAlign=middle;spacingTop=-1;spacingLeft=3;spacingRight=3;rotatable=0;labelPosition=right;points=[];portConstraint=eastwest;strokeColor=inherit;" parent="DyhR6PBjAMwKItRnX7ym-7" vertex="1"><mxGeometry y="52" width="320" height="8" as="geometry"/></mxCell><mxCell id="DyhR6PBjAMwKItRnX7ym-13" value="- reserveAppointment(Appointment): Appointment" style="text;strokeColor=none;fillColor=none;align=left;verticalAlign=top;spacingLeft=4;spacingRight=4;overflow=hidden;rotatable=0;points=[[0,0.5],[1,0.5]];portConstraint=eastwest;" parent="DyhR6PBjAMwKItRnX7ym-7" vertex="1"><mxGeometry y="60" width="320" height="26" as="geometry"/></mxCell><mxCell id="DyhR6PBjAMwKItRnX7ym-14" value="- freeAppointment(Appointment): Appointment" style="text;strokeColor=none;fillColor=none;align=left;verticalAlign=top;spacingLeft=4;spacingRight=4;overflow=hidden;rotatable=0;points=[[0,0.5],[1,0.5]];portConstraint=eastwest;" parent="DyhR6PBjAMwKItRnX7ym-7" vertex="1"><mxGeometry y="86" width="320" height="26" as="geometry"/></mxCell><mxCell id="DyhR6PBjAMwKItRnX7ym-17" value="" style="endArrow=open;html=1;rounded=0;align=center;verticalAlign=bottom;dashed=1;endFill=0;labelBackgroundColor=none;" parent="1" source="DyhR6PBjAMwKItRnX7ym-7" target="SGMvn93EfNvMgkkBNmYU-56" edge="1"><mxGeometry relative="1" as="geometry"><mxPoint x="900" y="228" as="sourcePoint"/><mxPoint x="1060" y="228" as="targetPoint"/></mxGeometry></mxCell><mxCell id="DyhR6PBjAMwKItRnX7ym-34" style="edgeStyle=orthogonalEdgeStyle;rounded=0;orthogonalLoop=1;jettySize=auto;html=1;endArrow=none;endFill=0;" parent="1" source="DyhR6PBjAMwKItRnX7ym-80" target="DyhR6PBjAMwKItRnX7ym-7" edge="1"><mxGeometry relative="1" as="geometry"><mxPoint x="940" y="214" as="sourcePoint"/></mxGeometry></mxCell><mxCell id="DyhR6PBjAMwKItRnX7ym-28" value="org.springframework.data.jpa.repository" style="shape=folder;fontStyle=1;tabWidth=260;tabHeight=35;tabPosition=left;html=1;boundedLbl=1;labelInHeader=1;container=1;collapsible=0;recursiveResize=0;" parent="1" vertex="1"><mxGeometry x="1150" y="1508" width="390" height="105" as="geometry"/></mxCell><mxCell id="DyhR6PBjAMwKItRnX7ym-27" value="«interface»&lt;br&gt;&lt;b&gt;JpaRepository&lt;/b&gt;" style="html=1;" parent="DyhR6PBjAMwKItRnX7ym-28" vertex="1"><mxGeometry x="90" y="45" width="180" height="50" as="geometry"/></mxCell><mxCell id="DyhR6PBjAMwKItRnX7ym-31" value="" style="endArrow=block;startArrow=none;endFill=0;startFill=0;endSize=8;html=1;verticalAlign=bottom;dashed=1;labelBackgroundColor=none;rounded=0;" parent="1" source="DyhR6PBjAMwKItRnX7ym-80" target="DyhR6PBjAMwKItRnX7ym-28" edge="1"><mxGeometry width="160" relative="1" as="geometry"><mxPoint x="947.2448979591836" y="1474" as="sourcePoint"/><mxPoint x="1010" y="1408" as="targetPoint"/></mxGeometry></mxCell><mxCell id="DyhR6PBjAMwKItRnX7ym-37" value="Exam Service" style="swimlane;fontStyle=1;align=center;verticalAlign=top;childLayout=stackLayout;horizontal=1;startSize=26;horizontalStack=0;resizeParent=1;resizeParentMax=0;resizeLast=0;collapsible=1;marginBottom=0;" parent="1" vertex="1"><mxGeometry x="820" y="988" width="516" height="216" as="geometry"/></mxCell><mxCell id="DyhR6PBjAMwKItRnX7ym-38" value="- examAttemptRespository: ExamAttemptRepository" style="text;strokeColor=none;fillColor=none;align=left;verticalAlign=top;spacingLeft=4;spacingRight=4;overflow=hidden;rotatable=0;points=[[0,0.5],[1,0.5]];portConstraint=eastwest;" parent="DyhR6PBjAMwKItRnX7ym-37" vertex="1"><mxGeometry y="26" width="516" height="26" as="geometry"/></mxCell><mxCell id="DyhR6PBjAMwKItRnX7ym-76" value="- adminRepository: AdminRepository" style="text;strokeColor=none;fillColor=none;align=left;verticalAlign=top;spacingLeft=4;spacingRight=4;overflow=hidden;rotatable=0;points=[[0,0.5],[1,0.5]];portConstraint=eastwest;" parent="DyhR6PBjAMwKItRnX7ym-37" vertex="1"><mxGeometry y="52" width="516" height="26" as="geometry"/></mxCell><mxCell id="DyhR6PBjAMwKItRnX7ym-39" value="" style="line;strokeWidth=1;fillColor=none;align=left;verticalAlign=middle;spacingTop=-1;spacingLeft=3;spacingRight=3;rotatable=0;labelPosition=right;points=[];portConstraint=eastwest;strokeColor=inherit;" parent="DyhR6PBjAMwKItRnX7ym-37" vertex="1"><mxGeometry y="78" width="516" height="8" as="geometry"/></mxCell><mxCell id="DyhR6PBjAMwKItRnX7ym-43" value="+ startExamAttempt(secret: String, appointmentId: Integer): List&lt;Question&gt;" style="text;strokeColor=none;fillColor=none;align=left;verticalAlign=top;spacingLeft=4;spacingRight=4;overflow=hidden;rotatable=0;points=[[0,0.5],[1,0.5]];portConstraint=eastwest;" parent="DyhR6PBjAMwKItRnX7ym-37" vertex="1"><mxGeometry y="86" width="516" height="26" as="geometry"/></mxCell><mxCell id="DyhR6PBjAMwKItRnX7ym-49" value="+ startExamAttemptWithGlasses(secret: String, appointmentId: Integer): List&lt;Question&gt;" style="text;strokeColor=none;fillColor=none;align=left;verticalAlign=top;spacingLeft=4;spacingRight=4;overflow=hidden;rotatable=0;points=[[0,0.5],[1,0.5]];portConstraint=eastwest;" parent="DyhR6PBjAMwKItRnX7ym-37" vertex="1"><mxGeometry y="112" width="516" height="26" as="geometry"/></mxCell><mxCell id="DyhR6PBjAMwKItRnX7ym-55" value="+ answerExam(List&lt;Option&gt;): ExamAttempt" style="text;strokeColor=none;fillColor=none;align=left;verticalAlign=top;spacingLeft=4;spacingRight=4;overflow=hidden;rotatable=0;points=[[0,0.5],[1,0.5]];portConstraint=eastwest;" parent="DyhR6PBjAMwKItRnX7ym-37" vertex="1"><mxGeometry y="138" width="516" height="26" as="geometry"/></mxCell><mxCell id="DyhR6PBjAMwKItRnX7ym-102" value="+ getExamResult(): ExamAttempt" style="text;strokeColor=none;fillColor=none;align=left;verticalAlign=top;spacingLeft=4;spacingRight=4;overflow=hidden;rotatable=0;points=[[0,0.5],[1,0.5]];portConstraint=eastwest;" parent="DyhR6PBjAMwKItRnX7ym-37" vertex="1"><mxGeometry y="164" width="516" height="26" as="geometry"/></mxCell><mxCell id="DyhR6PBjAMwKItRnX7ym-89" value="+ getTodaysExamsStatistics(): ExamsStatistics" style="text;strokeColor=none;fillColor=none;align=left;verticalAlign=top;spacingLeft=4;spacingRight=4;overflow=hidden;rotatable=0;points=[[0,0.5],[1,0.5]];portConstraint=eastwest;" parent="DyhR6PBjAMwKItRnX7ym-37" vertex="1"><mxGeometry y="190" width="516" height="26" as="geometry"/></mxCell><mxCell id="DyhR6PBjAMwKItRnX7ym-48" style="edgeStyle=orthogonalEdgeStyle;rounded=0;orthogonalLoop=1;jettySize=auto;html=1;endArrow=none;endFill=0;" parent="1" source="DyhR6PBjAMwKItRnX7ym-45" target="DyhR6PBjAMwKItRnX7ym-37" edge="1"><mxGeometry relative="1" as="geometry"/></mxCell><mxCell id="DyhR6PBjAMwKItRnX7ym-45" value="«interface»&lt;br&gt;&lt;b&gt;ExamAttemptRepository&lt;/b&gt;" style="html=1;" parent="1" vertex="1"><mxGeometry x="1030" y="1358" width="180" height="50" as="geometry"/></mxCell><mxCell id="DyhR6PBjAMwKItRnX7ym-47" value="" style="endArrow=block;startArrow=none;endFill=0;startFill=0;endSize=8;html=1;verticalAlign=bottom;dashed=1;labelBackgroundColor=none;rounded=0;" parent="1" source="DyhR6PBjAMwKItRnX7ym-45" target="DyhR6PBjAMwKItRnX7ym-28" edge="1"><mxGeometry width="160" relative="1" as="geometry"><mxPoint x="697.7058823529412" y="1458" as="sourcePoint"/><mxPoint x="840.2941176470588" y="1338" as="targetPoint"/></mxGeometry></mxCell><mxCell id="DyhR6PBjAMwKItRnX7ym-57" value="" style="endArrow=open;html=1;rounded=0;align=center;verticalAlign=bottom;dashed=1;endFill=0;labelBackgroundColor=none;" parent="1" source="DyhR6PBjAMwKItRnX7ym-37" target="SGMvn93EfNvMgkkBNmYU-70" edge="1"><mxGeometry relative="1" as="geometry"><mxPoint x="1110" y="878" as="sourcePoint"/><mxPoint x="1180" y="434" as="targetPoint"/></mxGeometry></mxCell><mxCell id="DyhR6PBjAMwKItRnX7ym-58" value="Admin Service" style="swimlane;fontStyle=1;align=center;verticalAlign=top;childLayout=stackLayout;horizontal=1;startSize=26;horizontalStack=0;resizeParent=1;resizeParentMax=0;resizeLast=0;collapsible=1;marginBottom=0;" parent="1" vertex="1"><mxGeometry x="1380" y="988" width="310" height="164" as="geometry"/></mxCell><mxCell id="DyhR6PBjAMwKItRnX7ym-59" value="- questionRepository: QuestionRepository" style="text;strokeColor=none;fillColor=none;align=left;verticalAlign=top;spacingLeft=4;spacingRight=4;overflow=hidden;rotatable=0;points=[[0,0.5],[1,0.5]];portConstraint=eastwest;" parent="DyhR6PBjAMwKItRnX7ym-58" vertex="1"><mxGeometry y="26" width="310" height="26" as="geometry"/></mxCell><mxCell id="DyhR6PBjAMwKItRnX7ym-86" value="- optionRepository: OptionRepository" style="text;strokeColor=none;fillColor=none;align=left;verticalAlign=top;spacingLeft=4;spacingRight=4;overflow=hidden;rotatable=0;points=[[0,0.5],[1,0.5]];portConstraint=eastwest;" parent="DyhR6PBjAMwKItRnX7ym-58" vertex="1"><mxGeometry y="52" width="310" height="26" as="geometry"/></mxCell><mxCell id="DyhR6PBjAMwKItRnX7ym-60" value="" style="line;strokeWidth=1;fillColor=none;align=left;verticalAlign=middle;spacingTop=-1;spacingLeft=3;spacingRight=3;rotatable=0;labelPosition=right;points=[];portConstraint=eastwest;strokeColor=inherit;" parent="DyhR6PBjAMwKItRnX7ym-58" vertex="1"><mxGeometry y="78" width="310" height="8" as="geometry"/></mxCell><mxCell id="DyhR6PBjAMwKItRnX7ym-61" value="+ getAllQuestionsInRandomOrder(): List&lt;Question&gt;" style="text;strokeColor=none;fillColor=none;align=left;verticalAlign=top;spacingLeft=4;spacingRight=4;overflow=hidden;rotatable=0;points=[[0,0.5],[1,0.5]];portConstraint=eastwest;" parent="DyhR6PBjAMwKItRnX7ym-58" vertex="1"><mxGeometry y="86" width="310" height="26" as="geometry"/></mxCell><mxCell id="DyhR6PBjAMwKItRnX7ym-73" value="+ modifyText(HasModifiableText): String" style="text;strokeColor=none;fillColor=none;align=left;verticalAlign=top;spacingLeft=4;spacingRight=4;overflow=hidden;rotatable=0;points=[[0,0.5],[1,0.5]];portConstraint=eastwest;" parent="DyhR6PBjAMwKItRnX7ym-58" vertex="1"><mxGeometry y="112" width="310" height="26" as="geometry"/></mxCell><mxCell id="DyhR6PBjAMwKItRnX7ym-87" value="+ modifyCorrectOption(Question, Option): Option" style="text;strokeColor=none;fillColor=none;align=left;verticalAlign=top;spacingLeft=4;spacingRight=4;overflow=hidden;rotatable=0;points=[[0,0.5],[1,0.5]];portConstraint=eastwest;" parent="DyhR6PBjAMwKItRnX7ym-58" vertex="1"><mxGeometry y="138" width="310" height="26" as="geometry"/></mxCell><mxCell id="DyhR6PBjAMwKItRnX7ym-65" value="&lt;p style=&quot;margin:0px;margin-top:4px;text-align:center;&quot;&gt;&lt;i&gt;&amp;lt;&amp;lt;Interface&amp;gt;&amp;gt;&lt;/i&gt;&lt;br&gt;&lt;b&gt;Has Modifiable Text&lt;/b&gt;&lt;/p&gt;&lt;hr size=&quot;1&quot;&gt;&lt;p style=&quot;margin:0px;margin-left:4px;&quot;&gt;+ getText(): String&lt;/p&gt;&lt;p style=&quot;margin:0px;margin-left:4px;&quot;&gt;+ changeText(String): String&lt;/p&gt;" style="verticalAlign=top;align=left;overflow=fill;fontSize=12;fontFamily=Helvetica;html=1;" parent="1" vertex="1"><mxGeometry x="2090" y="661" width="190" height="80" as="geometry"/></mxCell><mxCell id="DyhR6PBjAMwKItRnX7ym-67" value="" style="endArrow=block;startArrow=none;endFill=0;startFill=0;endSize=8;html=1;verticalAlign=bottom;dashed=1;labelBackgroundColor=none;rounded=0;" parent="1" source="SGMvn93EfNvMgkkBNmYU-47" target="DyhR6PBjAMwKItRnX7ym-65" edge="1"><mxGeometry width="160" relative="1" as="geometry"><mxPoint x="1904.4848979591834" y="231" as="sourcePoint"/><mxPoint x="1829.9951020408164" y="85" as="targetPoint"/></mxGeometry></mxCell><mxCell id="DyhR6PBjAMwKItRnX7ym-68" value="" style="endArrow=block;startArrow=none;endFill=0;startFill=0;endSize=8;html=1;verticalAlign=bottom;dashed=1;labelBackgroundColor=none;rounded=0;" parent="1" source="SGMvn93EfNvMgkkBNmYU-51" target="DyhR6PBjAMwKItRnX7ym-65" edge="1"><mxGeometry width="160" relative="1" as="geometry"><mxPoint x="1913.743169398907" y="308" as="sourcePoint"/><mxPoint x="2050.3551912568305" y="208" as="targetPoint"/></mxGeometry></mxCell><mxCell id="DyhR6PBjAMwKItRnX7ym-69" value="&lt;p style=&quot;margin:0px;margin-top:4px;text-align:center;&quot;&gt;&lt;i&gt;&amp;lt;&amp;lt;Interface&amp;gt;&amp;gt;&lt;/i&gt;&lt;br&gt;&lt;b&gt;Approvable&lt;/b&gt;&lt;/p&gt;&lt;hr size=&quot;1&quot;&gt;&lt;p style=&quot;margin:0px;margin-left:4px;&quot;&gt;+ isApproved(): Boolean&lt;/p&gt;" style="verticalAlign=top;align=left;overflow=fill;fontSize=12;fontFamily=Helvetica;html=1;" parent="1" vertex="1"><mxGeometry x="1055" y="788" width="190" height="66" as="geometry"/></mxCell><mxCell id="DyhR6PBjAMwKItRnX7ym-70" value="" style="endArrow=block;startArrow=none;endFill=0;startFill=0;endSize=8;html=1;verticalAlign=bottom;dashed=1;labelBackgroundColor=none;rounded=0;" parent="1" source="SGMvn93EfNvMgkkBNmYU-81" target="DyhR6PBjAMwKItRnX7ym-69" edge="1"><mxGeometry width="160" relative="1" as="geometry"><mxPoint x="1200" y="748" as="sourcePoint"/><mxPoint x="1360" y="748" as="targetPoint"/></mxGeometry></mxCell><mxCell id="DyhR6PBjAMwKItRnX7ym-71" value="" style="endArrow=block;startArrow=none;endFill=0;startFill=0;endSize=8;html=1;verticalAlign=bottom;dashed=1;labelBackgroundColor=none;rounded=0;" parent="1" source="SGMvn93EfNvMgkkBNmYU-70" target="DyhR6PBjAMwKItRnX7ym-69" edge="1"><mxGeometry width="160" relative="1" as="geometry"><mxPoint x="1159.2687074829932" y="684" as="sourcePoint"/><mxPoint x="1155.561224489796" y="902" as="targetPoint"/></mxGeometry></mxCell><mxCell id="DyhR6PBjAMwKItRnX7ym-74" value="" style="endArrow=open;html=1;rounded=0;align=center;verticalAlign=bottom;dashed=1;endFill=0;labelBackgroundColor=none;" parent="1" source="DyhR6PBjAMwKItRnX7ym-58" target="DyhR6PBjAMwKItRnX7ym-65" edge="1"><mxGeometry relative="1" as="geometry"><mxPoint x="1860" y="608" as="sourcePoint"/><mxPoint x="2020" y="608" as="targetPoint"/></mxGeometry></mxCell><mxCell id="DyhR6PBjAMwKItRnX7ym-77" value="" style="endArrow=open;html=1;rounded=0;align=center;verticalAlign=bottom;dashed=1;endFill=0;labelBackgroundColor=none;" parent="1" source="DyhR6PBjAMwKItRnX7ym-37" target="DyhR6PBjAMwKItRnX7ym-69" edge="1"><mxGeometry relative="1" as="geometry"><mxPoint x="938" y="802.1759036144576" as="sourcePoint"/><mxPoint x="1365" y="805.7771084337346" as="targetPoint"/></mxGeometry></mxCell><mxCell id="DyhR6PBjAMwKItRnX7ym-80" value="«interface»&lt;br&gt;&lt;b&gt;AppointmentRepository&lt;/b&gt;" style="html=1;" parent="1" vertex="1"><mxGeometry x="930" y="1418" width="180" height="50" as="geometry"/></mxCell><mxCell id="DyhR6PBjAMwKItRnX7ym-84" style="edgeStyle=orthogonalEdgeStyle;rounded=0;orthogonalLoop=1;jettySize=auto;html=1;endArrow=none;endFill=0;" parent="1" source="DyhR6PBjAMwKItRnX7ym-81" target="DyhR6PBjAMwKItRnX7ym-58" edge="1"><mxGeometry relative="1" as="geometry"/></mxCell><mxCell id="DyhR6PBjAMwKItRnX7ym-81" value="«interface»&lt;br&gt;&lt;b&gt;QuestionRepository&lt;/b&gt;" style="html=1;" parent="1" vertex="1"><mxGeometry x="1235" y="1358" width="180" height="50" as="geometry"/></mxCell><mxCell id="DyhR6PBjAMwKItRnX7ym-83" value="" style="endArrow=block;startArrow=none;endFill=0;startFill=0;endSize=8;html=1;verticalAlign=bottom;dashed=1;labelBackgroundColor=none;rounded=0;" parent="1" source="DyhR6PBjAMwKItRnX7ym-81" target="DyhR6PBjAMwKItRnX7ym-28" edge="1"><mxGeometry width="160" relative="1" as="geometry"><mxPoint x="957.2448979591836" y="1484" as="sourcePoint"/><mxPoint x="882.7551020408162" y="1338" as="targetPoint"/></mxGeometry></mxCell><mxCell id="DyhR6PBjAMwKItRnX7ym-85" value="" style="endArrow=open;html=1;rounded=0;align=center;verticalAlign=bottom;dashed=1;endFill=0;labelBackgroundColor=none;" parent="1" source="DyhR6PBjAMwKItRnX7ym-58" target="SGMvn93EfNvMgkkBNmYU-47" edge="1"><mxGeometry relative="1" as="geometry"><mxPoint x="1894.4413407821226" y="90" as="sourcePoint"/><mxPoint x="2172.541899441341" y="352" as="targetPoint"/></mxGeometry></mxCell><mxCell id="DyhR6PBjAMwKItRnX7ym-90" value="ExamsStatistics" style="swimlane;fontStyle=1;align=center;verticalAlign=top;childLayout=stackLayout;horizontal=1;startSize=26;horizontalStack=0;resizeParent=1;resizeParentMax=0;resizeLast=0;collapsible=1;marginBottom=0;" parent="1" vertex="1"><mxGeometry x="790" y="778" width="206" height="138" as="geometry"/></mxCell><mxCell id="DyhR6PBjAMwKItRnX7ym-91" value="- examsTaken: Integer" style="text;strokeColor=none;fillColor=none;align=left;verticalAlign=top;spacingLeft=4;spacingRight=4;overflow=hidden;rotatable=0;points=[[0,0.5],[1,0.5]];portConstraint=eastwest;" parent="DyhR6PBjAMwKItRnX7ym-90" vertex="1"><mxGeometry y="26" width="206" height="26" as="geometry"/></mxCell><mxCell id="DyhR6PBjAMwKItRnX7ym-92" value="- approvedExams: Integer" style="text;strokeColor=none;fillColor=none;align=left;verticalAlign=top;spacingLeft=4;spacingRight=4;overflow=hidden;rotatable=0;points=[[0,0.5],[1,0.5]];portConstraint=eastwest;" parent="DyhR6PBjAMwKItRnX7ym-90" vertex="1"><mxGeometry y="52" width="206" height="26" as="geometry"/></mxCell><mxCell id="DyhR6PBjAMwKItRnX7ym-98" value="- failedExams: Integer" style="text;strokeColor=none;fillColor=none;align=left;verticalAlign=top;spacingLeft=4;spacingRight=4;overflow=hidden;rotatable=0;points=[[0,0.5],[1,0.5]];portConstraint=eastwest;" parent="DyhR6PBjAMwKItRnX7ym-90" vertex="1"><mxGeometry y="78" width="206" height="26" as="geometry"/></mxCell><mxCell id="DyhR6PBjAMwKItRnX7ym-99" value="- absentStudents: Integer" style="text;strokeColor=none;fillColor=none;align=left;verticalAlign=top;spacingLeft=4;spacingRight=4;overflow=hidden;rotatable=0;points=[[0,0.5],[1,0.5]];portConstraint=eastwest;" parent="DyhR6PBjAMwKItRnX7ym-90" vertex="1"><mxGeometry y="104" width="206" height="26" as="geometry"/></mxCell><mxCell id="DyhR6PBjAMwKItRnX7ym-93" value="" style="line;strokeWidth=1;fillColor=none;align=left;verticalAlign=middle;spacingTop=-1;spacingLeft=3;spacingRight=3;rotatable=0;labelPosition=right;points=[];portConstraint=eastwest;strokeColor=inherit;" parent="DyhR6PBjAMwKItRnX7ym-90" vertex="1"><mxGeometry y="130" width="206" height="8" as="geometry"/></mxCell><mxCell id="DyhR6PBjAMwKItRnX7ym-100" value="" style="endArrow=open;html=1;rounded=0;align=center;verticalAlign=bottom;dashed=1;endFill=0;labelBackgroundColor=none;" parent="1" source="DyhR6PBjAMwKItRnX7ym-37" target="DyhR6PBjAMwKItRnX7ym-90" edge="1"><mxGeometry relative="1" as="geometry"><mxPoint x="640" y="928" as="sourcePoint"/><mxPoint x="800" y="928" as="targetPoint"/></mxGeometry></mxCell><mxCell id="4" value="Admin Service" style="swimlane;fontStyle=1;align=center;verticalAlign=top;childLayout=stackLayout;horizontal=1;startSize=26;horizontalStack=0;resizeParent=1;resizeParentMax=0;resizeLast=0;collapsible=1;marginBottom=0;" vertex="1" parent="1"><mxGeometry x="1890" y="66" width="310" height="112" as="geometry"/></mxCell><mxCell id="7" value="" style="line;strokeWidth=1;fillColor=none;align=left;verticalAlign=middle;spacingTop=-1;spacingLeft=3;spacingRight=3;rotatable=0;labelPosition=right;points=[];portConstraint=eastwest;strokeColor=inherit;" vertex="1" parent="4"><mxGeometry y="26" width="310" height="8" as="geometry"/></mxCell><mxCell id="11" value="+ getAllUsers(): List&lt;BaseUser&gt;" style="text;strokeColor=none;fillColor=none;align=left;verticalAlign=top;spacingLeft=4;spacingRight=4;overflow=hidden;rotatable=0;points=[[0,0.5],[1,0.5]];portConstraint=eastwest;" vertex="1" parent="4"><mxGeometry y="34" width="310" height="26" as="geometry"/></mxCell><mxCell id="10" value="+ createStudent(): Student" style="text;strokeColor=none;fillColor=none;align=left;verticalAlign=top;spacingLeft=4;spacingRight=4;overflow=hidden;rotatable=0;points=[[0,0.5],[1,0.5]];portConstraint=eastwest;" vertex="1" parent="4"><mxGeometry y="60" width="310" height="26" as="geometry"/></mxCell><mxCell id="12" value="+ createAdmin(): Admin" style="text;strokeColor=none;fillColor=none;align=left;verticalAlign=top;spacingLeft=4;spacingRight=4;overflow=hidden;rotatable=0;points=[[0,0.5],[1,0.5]];portConstraint=eastwest;" vertex="1" parent="4"><mxGeometry y="86" width="310" height="26" as="geometry"/></mxCell><mxCell id="13" value="«interface»&lt;br&gt;&lt;b&gt;AdminRepository&lt;/b&gt;" style="html=1;" vertex="1" parent="1"><mxGeometry x="1645" y="1368" width="180" height="50" as="geometry"/></mxCell><mxCell id="14" value="«interface»&lt;br&gt;&lt;b&gt;StudentRepository&lt;/b&gt;" style="html=1;" vertex="1" parent="1"><mxGeometry x="1825" y="1470" width="180" height="50" as="geometry"/></mxCell><mxCell id="17" value="" style="endArrow=block;startArrow=none;endFill=0;startFill=0;endSize=8;html=1;verticalAlign=bottom;dashed=1;labelBackgroundColor=none;rounded=0;" edge="1" parent="1" source="13" target="DyhR6PBjAMwKItRnX7ym-28"><mxGeometry width="160" relative="1" as="geometry"><mxPoint x="1337.8169014084506" y="1418" as="sourcePoint"/><mxPoint x="1349.0845070422533" y="1518" as="targetPoint"/></mxGeometry></mxCell><mxCell id="18" value="" style="endArrow=block;startArrow=none;endFill=0;startFill=0;endSize=8;html=1;verticalAlign=bottom;dashed=1;labelBackgroundColor=none;rounded=0;" edge="1" parent="1" source="14" target="DyhR6PBjAMwKItRnX7ym-28"><mxGeometry width="160" relative="1" as="geometry"><mxPoint x="1686.7910447761192" y="1428" as="sourcePoint"/><mxPoint x="1477.2388059701493" y="1518" as="targetPoint"/></mxGeometry></mxCell><mxCell id="19" style="edgeStyle=orthogonalEdgeStyle;rounded=0;orthogonalLoop=1;jettySize=auto;html=1;endArrow=none;endFill=0;" edge="1" parent="1" source="13" target="4"><mxGeometry relative="1" as="geometry"><mxPoint x="1334.999999999999" y="1368" as="sourcePoint"/><mxPoint x="1544.999999999999" y="1162" as="targetPoint"/></mxGeometry></mxCell><mxCell id="20" style="edgeStyle=orthogonalEdgeStyle;rounded=0;orthogonalLoop=1;jettySize=auto;html=1;endArrow=none;endFill=0;" edge="1" parent="1" source="14" target="4"><mxGeometry relative="1" as="geometry"><mxPoint x="1835" y="1403.090909090909" as="sourcePoint"/><mxPoint x="2044.999999999999" y="265" as="targetPoint"/><Array as="points"><mxPoint x="2035" y="1495"/></Array></mxGeometry></mxCell><mxCell id="21" value="" style="endArrow=open;html=1;rounded=0;align=center;verticalAlign=bottom;dashed=1;endFill=0;labelBackgroundColor=none;" edge="1" parent="1" source="4" target="SGMvn93EfNvMgkkBNmYU-40"><mxGeometry relative="1" as="geometry"><mxPoint x="1666.998093645485" y="319" as="sourcePoint"/><mxPoint x="1839.1853846153845" y="196.99999999999977" as="targetPoint"/></mxGeometry></mxCell><mxCell id="22" value="" style="endArrow=open;html=1;rounded=0;align=center;verticalAlign=bottom;dashed=1;endFill=0;labelBackgroundColor=none;" edge="1" parent="1" source="4" target="SGMvn93EfNvMgkkBNmYU-35"><mxGeometry relative="1" as="geometry"><mxPoint x="1900" y="157.22549019607834" as="sourcePoint"/><mxPoint x="1625" y="201.98039215686265" as="targetPoint"/></mxGeometry></mxCell></root></mxGraphModel></diagram></mxfile>